<svg xmlns="http://www.w3.org/2000/svg" fill="none" viewBox="0 0 68 48" height="48" width="68">
<g clip-path="url(#clip0_3922_10276)">
<g clip-path="url(#clip1_3922_10276)">
<path fill="#33B7C3" d="M33.1742 37.7282L33.3399 37.7786C33.9492 37.9629 34.5246 38.1368 34.9039 38.8988C34.9135 38.918 34.927 38.935 34.9435 38.9488C34.9601 38.9623 34.9793 38.9723 34.9999 38.978C35.0129 38.9814 35.0262 38.9832 35.0396 38.9832C35.069 38.9832 35.0977 38.9746 35.1224 38.9585C35.4021 38.7746 35.6655 38.608 35.9156 38.4498C36.4396 38.1182 36.8922 37.832 37.325 37.4986C38.8773 36.3288 40.2938 34.9859 41.5477 33.4952C43.1957 31.5025 44.8997 29.4419 46.5038 27.2849C47.5077 25.9346 48.3637 24.4271 49.0871 23.1207C49.8107 21.7988 50.2414 20.3341 50.3497 18.8277C50.546 16.3522 49.9629 14.1209 48.6168 12.1958C47.1185 10.0533 45.1258 9.00981 42.6986 9.09026C39.9603 9.18265 37.5522 10.2395 35.5407 12.2316C35.4431 12.3328 35.3528 12.4408 35.2705 12.5549C35.1141 12.7608 34.9657 12.9564 34.7424 13.0338C32.3961 10.7264 30.6022 9.82373 27.9187 9.59239C25.1646 9.35477 22.935 10.2491 21.2914 12.2491C20.4758 13.2377 19.7609 14.3067 19.1576 15.4401C17.8716 17.8713 17.6036 20.4573 18.3624 23.1267C19.039 25.5092 20.1673 27.7364 21.6846 29.6846C24.7182 33.592 28.584 36.2986 33.1742 37.7282ZM21.814 15.9005C22.1664 15.23 22.559 14.5818 22.9895 13.9595C24.0131 12.451 25.4558 11.6897 27.2853 11.6897C27.5119 11.6897 27.7445 11.7013 27.983 11.7247C30.4266 11.9646 32.387 13.0516 33.8094 14.9555C33.9802 15.1841 34.1663 15.3958 34.3304 15.5824C34.3972 15.6585 34.46 15.73 34.5155 15.7955C34.5385 15.8228 34.5704 15.841 34.6055 15.847C35.2652 15.9619 35.5318 15.6165 35.7298 15.2849C36.8721 13.3719 38.65 12.23 41.3253 11.6915C41.9588 11.5811 42.605 11.5647 43.2433 11.6429C44.2567 11.7395 45.126 12.2424 45.8274 13.1372C46.6266 14.1635 47.1003 15.4096 47.1864 16.7123C47.3278 18.2181 47.0539 19.7341 46.3951 21.0925C45.8986 22.1453 45.3335 23.1638 44.7035 24.141C43.5337 25.8812 42.2844 27.6112 41.0765 29.2841L40.6567 29.8662C39.7571 31.1134 38.8268 32.3706 37.9273 33.5862C37.6027 34.0249 37.2784 34.4637 36.9542 34.9028C36.8144 35.0923 36.6688 35.278 36.5148 35.4747C36.4639 35.5395 36.4124 35.6055 36.3599 35.6728C35.9284 35.4937 35.5083 35.3186 35.0964 35.1476C34.1241 34.7437 33.197 34.3585 32.2721 33.9676C29.7121 32.9031 27.3933 31.324 25.4565 29.3264C23.4708 27.2634 22.0945 25.0564 21.2493 22.5791C20.4786 20.3194 20.6632 18.1347 21.814 15.9005Z"></path>
</g>
</g>
<rect stroke="#ECF2F3" rx="11.2297" height="47" width="67" y="0.5" x="0.5"></rect>
<defs>
<clipPath id="clip0_3922_10276">
<rect fill="white" rx="11.7297" height="48" width="68"></rect>
</clipPath>
<clipPath id="clip1_3922_10276">
<rect transform="translate(17.916 9)" fill="white" height="30" width="32.5191"></rect>
</clipPath>
</defs>
</svg>
