<svg xmlns="http://www.w3.org/2000/svg" fill="none" viewBox="0 0 64 50" height="50" width="64">
<rect stroke-miterlimit="10" stroke="#ECF2F3" rx="11.73" height="48" width="62" y="1" x="1"></rect>
<g clip-path="url(#clip0_3922_10265)">
<path fill="#33B7C3" d="M19.2134 14.3121C19.0886 14.3137 18.9638 14.3114 18.8391 14.3092C18.604 14.3009 18.3687 14.3047 18.134 14.3206C17.2571 14.3937 16.9 14.7591 16.8598 15.6239C16.7995 16.929 16.7475 18.2562 16.6972 19.5397L16.6411 20.9603C16.6373 21.0539 16.638 21.1478 16.6428 21.2401C16.7059 22.4362 17.1551 22.929 18.3592 23.1232C18.4618 23.1396 18.566 23.1512 18.6707 23.1623C19.0268 23.2013 19.3639 23.239 19.671 23.4755C19.6789 23.6357 19.6883 23.7966 19.6971 23.9575C19.7194 24.3416 19.7426 24.739 19.7461 25.1291C19.7625 26.9486 19.7771 28.7681 19.7899 30.5875C19.805 32.599 19.8215 34.6104 19.8392 36.6216C19.8394 37.2496 19.8728 37.877 19.9395 38.5014C20.0408 39.3655 20.29 39.6123 21.1511 39.7025L21.4641 39.7355C22.2934 39.8379 23.1273 39.8984 23.9627 39.9166C24.8389 39.9206 25.7125 39.9226 26.5837 39.9227C28.8683 39.9227 31.1282 39.9086 33.3298 39.8805C34.5125 39.8654 35.714 39.8235 36.876 39.7828C37.73 39.753 38.6133 39.7221 39.4819 39.7023C40.3238 39.6829 41.1806 39.678 42.0093 39.6732C42.6264 39.6696 43.2647 39.6659 43.8927 39.6562C44.6079 39.6454 45.0011 39.3144 45.1282 38.6142C45.1614 38.402 45.1784 38.1876 45.1788 37.973C45.1817 37.871 45.1844 37.769 45.1909 37.6675C45.2431 36.8554 45.2969 36.0434 45.3523 35.2318C45.4718 33.4528 45.5953 31.6134 45.6946 29.8027C45.7264 29.2221 45.7875 28.6296 45.8464 28.0573C46.0211 26.3601 46.2016 24.6068 45.674 22.8342C45.7178 22.8247 45.7598 22.8151 45.8004 22.806C45.9416 22.7713 46.0849 22.7451 46.2294 22.7279C46.4071 22.7111 46.5906 22.7018 46.7678 22.6934C47.0303 22.6803 47.3018 22.6673 47.5683 22.6282C48.2823 22.524 48.6907 22.0764 48.7495 21.3346C48.7591 21.16 48.7554 20.9851 48.7387 20.8111L48.7366 20.7811C48.6203 19.1316 48.5019 17.4823 48.3834 15.8137L48.2823 14.3971C48.2801 14.3664 48.2675 14.3374 48.2463 14.3149C48.2254 14.2925 48.1972 14.278 48.1667 14.2739C48.0874 14.2632 48.0111 14.2514 47.937 14.2398C47.7789 14.2153 47.6296 14.1923 47.4765 14.1829C46.9842 14.1529 46.492 14.1241 45.9995 14.0967C45.1277 14.0468 44.2261 13.9953 43.3409 13.9335C43.1906 13.9131 43.0443 13.8709 42.9064 13.8082C42.8749 13.7959 42.8433 13.7836 42.8113 13.7715C42.8512 13.6845 42.8905 13.6015 42.9287 13.5217C43.0422 13.2954 43.1407 13.0618 43.2234 12.8226C43.3471 12.459 43.3961 12.0743 43.3677 11.6914C43.3393 11.3085 43.2338 10.9353 43.0578 10.594C42.8706 10.2534 42.6168 9.95384 42.3112 9.71338C42.0057 9.47292 41.6548 9.29643 41.2796 9.19441C40.6603 9.00813 40.0058 8.97003 39.3691 9.08317C37.5514 9.40216 35.9136 10.2318 34.3619 11.6197C34.1663 11.7948 33.9707 11.9776 33.7652 12.1712C33.7 12.2328 33.6322 12.2962 33.5622 12.3616C33.5137 12.2835 33.4677 12.2095 33.4233 12.1383C33.2824 11.9108 33.1606 11.7145 33.0311 11.5202C32.6278 10.9005 32.075 10.392 31.4237 10.0413C29.6411 9.09294 27.735 9.00972 25.7588 9.79384C25.1948 10.0275 24.7115 10.4207 24.3682 10.9251C23.6414 11.9434 23.6707 12.7907 24.4666 13.7581C24.5754 13.8841 24.6911 14.0041 24.8131 14.1174C24.8512 14.1545 24.8928 14.1955 24.9389 14.2401L23.8528 14.2539C22.211 14.2745 20.7122 14.2942 19.2134 14.3121ZM21.8916 24.7163C21.8747 24.4154 21.8476 24.1171 21.819 23.8028C21.8096 23.7006 21.8003 23.5967 21.791 23.491C21.8263 23.4845 21.8602 23.478 21.8929 23.4716C22.0015 23.4461 22.1122 23.4311 22.2236 23.4264C24.9502 23.4226 27.677 23.4226 30.503 23.4229H32.1319C32.1312 24.172 32.1246 24.9127 32.1182 25.6304C32.1028 27.3697 32.0882 29.0123 32.1525 30.6738C32.2168 32.3389 32.3576 33.9634 32.5066 35.6834C32.567 36.3805 32.6294 37.1004 32.6857 37.8182C32.6163 37.8383 32.5503 37.859 32.4871 37.8789C32.3364 37.936 32.1783 37.971 32.0177 37.9831C28.9673 38.0057 25.9617 38.0153 22.3874 38.0222H22.3858C22.2744 38.0171 22.1638 38.0011 22.0555 37.9741C22.0145 37.9654 21.9716 37.9566 21.9262 37.9481C21.9195 37.8793 21.9125 37.8117 21.9054 37.7448C21.8809 37.5478 21.8672 37.3497 21.8645 37.1513C21.8759 35.2921 21.8889 33.4329 21.9036 31.5738C21.9168 29.7802 21.9293 27.9867 21.9411 26.1931C21.9439 25.6925 21.9178 25.1896 21.8917 24.7163H21.8916ZM29.7944 16.1717C30.0328 16.1698 30.2714 16.1621 30.5094 16.1544C30.9693 16.1398 31.4435 16.1246 31.8982 16.1544C32.0479 17.0932 32.1153 19.7925 32.0197 21.0968C31.3564 21.2603 30.6562 21.2494 29.9779 21.2379C29.6156 21.2323 29.2407 21.226 28.8717 21.2461C27.8665 21.3004 26.8403 21.308 25.8478 21.3154L25.0487 21.3222C24.1179 21.3309 23.1553 21.34 22.2129 21.2969C21.9564 21.2852 21.6946 21.2809 21.4415 21.2768C20.6261 21.2638 19.7839 21.2499 18.9108 20.9874L18.6924 16.2512C19.1671 16.2051 19.6456 16.2131 20.1185 16.2749C20.3584 16.2976 20.6066 16.3212 20.8513 16.3278C21.5674 16.3471 22.3106 16.3572 23.1233 16.3585C23.8431 16.3594 24.6174 16.3574 25.3967 16.3333C25.7782 16.3214 26.165 16.2984 26.5388 16.2762C26.8639 16.2568 27.2 16.2371 27.5298 16.2241C28.2928 16.1953 29.0545 16.1779 29.7944 16.1719V16.1717ZM26.5913 14.0829L25.7645 12.9287C25.8297 12.217 26.1749 11.8041 26.8801 11.5931C27.9232 11.2805 28.8854 11.275 29.8194 11.5751C30.879 11.9157 31.5554 12.6302 32.0569 13.9499L26.5913 14.0829ZM34.5923 13.7879C35.7855 12.3956 37.4163 11.449 39.2181 11.1032C39.8678 10.9697 40.6063 10.9261 41.1764 11.605C41.3017 12.8764 41.3012 12.9175 40.939 13.7356C40.9019 13.7419 40.8641 13.7487 40.8256 13.7558C40.6879 13.7853 40.548 13.8032 40.4073 13.8094C38.5774 13.8354 36.6519 13.8554 34.683 13.8687C34.6633 13.8539 34.6446 13.8377 34.6271 13.8203C34.6158 13.8095 34.6041 13.7986 34.5923 13.788V13.7879ZM33.9844 30.6034C34.0298 28.9401 34.0194 27.3111 34.0084 25.5863C34.0037 24.8761 33.9993 24.1613 33.9988 23.4398C35.3288 23.2805 43.3186 22.9149 44.6498 22.9506C44.6237 23.0732 44.5967 23.1956 44.5697 23.3177C44.4861 23.6946 44.4002 24.0842 44.3502 24.4746C44.1686 25.9073 44.0274 27.1109 43.9283 28.3282C43.8134 29.7403 43.724 31.1773 43.6374 32.5672C43.6119 32.9757 43.5863 33.3845 43.5603 33.7931C43.5234 34.3728 43.4883 34.9527 43.4552 35.5327C43.4161 36.197 43.377 36.8604 43.3338 37.5239C43.3219 37.5971 43.2989 37.6679 43.2651 37.734C43.2551 37.7575 43.2446 37.7816 43.2343 37.8069H33.6095C33.6487 37.0931 33.6914 36.3844 33.7339 35.6792C33.8345 34.0132 33.9384 32.2905 33.9844 30.6036V30.6034ZM46.4465 15.4941C46.4559 15.5079 46.4621 15.5235 46.4647 15.54C46.429 17.0568 46.3915 18.5736 46.3527 20.1347L46.343 20.5282C46.2731 20.542 46.2046 20.5564 46.1371 20.5707C45.9417 20.6171 45.7433 20.6497 45.5434 20.6684C41.7619 20.9249 37.9612 21.0609 34.245 21.0722C34.0556 20.0254 33.9979 17.337 34.1406 16.1552C34.9152 15.9826 35.7315 15.9646 36.5228 15.9468C36.7375 15.9421 36.952 15.9374 37.1661 15.9296C37.6561 15.9123 38.1561 15.9094 38.6396 15.9067C39.1631 15.9037 39.7045 15.9005 40.2373 15.8789C41.3114 15.8355 42.3643 15.7558 43.4383 15.6705C44.1453 15.6148 44.8518 15.5465 45.5348 15.4805C45.8108 15.4539 46.0828 15.4279 46.3508 15.4024C46.3677 15.4181 46.3823 15.4314 46.3952 15.443C46.4136 15.4586 46.4307 15.4756 46.4465 15.4938V15.4941Z"></path>
</g>
<defs>
<clipPath id="clip0_3922_10265">
<rect transform="translate(16.5586 9)" fill="white" height="31" width="32.2078"></rect>
</clipPath>
</defs>
</svg>
