<svg xmlns="http://www.w3.org/2000/svg" fill="none" viewBox="0 0 23 23" height="23" width="23">
<g clip-path="url(#clip0_4480_3669)">
<path fill="#1D1D1D" d="M21.4701 11.798C21.3776 11.6086 21.3776 11.3915 21.4701 11.2022L22.328 9.44732C22.8056 8.47023 22.4272 7.30564 21.4665 6.79592L19.741 5.88041C19.5549 5.78168 19.4272 5.60594 19.3908 5.39845L19.0534 3.4745C18.8655 2.4033 17.8746 1.68348 16.7979 1.83581L14.8639 2.10938C14.6552 2.13885 14.4488 2.07173 14.2973 1.92524L12.8935 0.567175C12.1118 -0.189036 10.8872 -0.189081 10.1056 0.567175L8.70172 1.92538C8.55024 2.07191 8.34383 2.13889 8.13512 2.10951L6.20111 1.83594C5.12411 1.68352 4.13359 2.40344 3.94569 3.47464L3.60823 5.39849C3.5718 5.60603 3.44418 5.78172 3.25807 5.8805L1.53263 6.79601C0.571937 7.30569 0.193517 8.47037 0.671124 9.44746L1.5289 11.2023C1.62144 11.3916 1.62144 11.6088 1.5289 11.7981L0.671079 13.5529C0.193473 14.53 0.571892 15.6946 1.53259 16.2043L3.25803 17.1198C3.44418 17.2185 3.5718 17.3943 3.60823 17.6018L3.94569 19.5257C4.11675 20.5009 4.95292 21.1848 5.91393 21.1847C6.00858 21.1847 6.10462 21.178 6.20115 21.1644L8.13516 20.8908C8.34374 20.8612 8.55029 20.9284 8.70176 21.0749L10.1056 22.433C10.4965 22.8111 10.9979 23.0002 11.4995 23.0001C12.001 23.0001 12.5027 22.8111 12.8934 22.433L14.2973 21.0749C14.4488 20.9284 14.6553 20.8615 14.8639 20.8908L16.7979 21.1644C17.8751 21.3167 18.8655 20.5969 19.0534 19.5257L19.3909 17.6018C19.4273 17.3943 19.5549 17.2186 19.741 17.1198L21.4665 16.2043C22.4272 15.6946 22.8056 14.5299 22.328 13.5528L21.4701 11.798ZM8.84641 5.53065C10.1874 5.53065 11.2784 6.62167 11.2784 7.96267C11.2784 9.30367 10.1874 10.3947 8.84641 10.3947C7.50541 10.3947 6.4144 9.30367 6.4144 7.96267C6.4144 6.62167 7.50541 5.53065 8.84641 5.53065ZM7.59112 16.3464C7.46161 16.4759 7.29185 16.5407 7.12214 16.5407C6.95242 16.5407 6.78262 16.476 6.65316 16.3464C6.39414 16.0874 6.39414 15.6674 6.65316 15.4084L15.4079 6.65369C15.6669 6.39468 16.0869 6.39468 16.3459 6.65369C16.6049 6.91271 16.6049 7.33268 16.3459 7.5917L7.59112 16.3464ZM14.1525 17.4696C12.8115 17.4696 11.7205 16.3785 11.7205 15.0375C11.7205 13.6965 12.8115 12.6055 14.1525 12.6055C15.4935 12.6055 16.5846 13.6965 16.5846 15.0375C16.5846 16.3785 15.4935 17.4696 14.1525 17.4696Z"></path>
<path fill="#1D1D1D" d="M14.1524 13.9316C13.5428 13.9316 13.0469 14.4275 13.0469 15.0371C13.0469 15.6466 13.5428 16.1425 14.1524 16.1425C14.7619 16.1425 15.2578 15.6466 15.2578 15.0371C15.2578 14.4275 14.7619 13.9316 14.1524 13.9316Z"></path>
<path fill="#1D1D1D" d="M8.84762 6.85742C8.23808 6.85742 7.74219 7.35331 7.74219 7.96285C7.74219 8.57239 8.23808 9.06833 8.84762 9.06833C9.45716 9.06833 9.95309 8.57244 9.95309 7.96285C9.95305 7.35336 9.45716 6.85742 8.84762 6.85742Z"></path>
</g>
<defs>
<clipPath id="clip0_4480_3669">
<rect fill="white" height="23" width="23"></rect>
</clipPath>
</defs>
</svg>
