<svg xmlns="http://www.w3.org/2000/svg" fill="none" viewBox="0 0 68 48" height="48" width="68">
<g clip-path="url(#clip0_3922_10268)">
<path fill="#33B7C3" d="M50.6335 17.585H41.5512C41.5512 17.585 41.5829 17.6166 41.5964 17.6347L27.0242 18.1995C27.0423 18.1769 27.0604 18.1633 27.0739 18.1453H23.8341C23.441 18.2221 22.6277 18.2356 22.6277 18.2356C21.48 18.2537 20.2916 18.2763 19.1032 18.2989C19.0309 18.2989 18.9586 18.2989 18.8864 18.2989C18.6649 18.2944 18.4435 18.3034 18.2221 18.335C17.3907 18.457 16.5322 18.9089 16.4283 19.781C16.3379 20.513 16.6723 20.9739 17.6076 21.4302C17.6076 21.4302 17.6166 21.4347 17.6166 21.4393C17.7206 21.9724 17.829 22.5056 17.9284 23.0433C18.1679 24.2814 18.4164 25.5601 18.6921 26.8163C18.8909 27.7245 19.1078 28.6418 19.3246 29.5319C19.6003 30.6887 19.8895 31.8816 20.1289 33.0654C20.4001 34.4255 20.8158 35.7494 21.367 37.0191C21.9183 38.2843 22.9033 39.0027 24.3041 39.1519C25.9533 39.3281 27.5619 39.4862 29.1615 39.4998C29.4823 39.4998 29.8076 39.4998 30.1284 39.4998C32.7221 39.4998 35.2976 39.4275 37.5478 39.3597C39.1067 39.31 40.7424 39.2061 42.5544 39.0434C44.8904 38.831 46.4312 37.7014 47.2672 35.6003C48.0579 33.6031 48.5414 31.502 49.0068 29.4687C49.061 29.2247 49.1198 28.9807 49.174 28.7321C49.5852 26.9473 49.9783 25.1264 50.3578 23.3641C50.5205 22.6096 50.6832 21.855 50.8458 21.1004C51.6727 20.7524 52.1336 20.043 52.1426 19.1032C52.1517 18.3034 51.6772 17.7793 50.6425 17.585H50.6335ZM48.5278 21.7284C48.4375 22.1577 48.3471 22.5644 48.2522 22.962L47.9133 24.3356C47.2039 27.2184 46.4719 30.2007 45.7309 33.1287C45.4959 34.1047 45.1028 35.031 44.5696 35.8804C44.2081 36.4407 43.7563 36.7525 43.1779 36.8339C42.9836 36.861 42.7893 36.8881 42.5995 36.9197C41.5738 37.0688 40.512 37.227 39.4682 37.2767C36.9695 37.3941 34.6921 37.4484 32.5052 37.4393C30.9644 37.4348 29.4009 37.358 27.8827 37.2812C27.3902 37.2586 26.8977 37.236 26.4052 37.2134C25.9081 37.1908 25.4021 37.1456 24.9141 37.105C24.7107 37.0869 24.5074 37.0688 24.3041 37.0553C23.6579 37.0056 23.3009 36.6893 23.1518 36.0341C22.822 34.5656 22.465 33.0744 22.1171 31.6376C21.9906 31.0999 21.8595 30.5621 21.733 30.0244L21.2089 27.8104C20.7209 25.759 20.2329 23.7076 19.7494 21.6561C19.7494 21.6245 19.7494 21.5884 19.7494 21.5567C19.7539 21.5567 19.7629 21.5477 19.7675 21.5432C20.0612 21.5432 20.3504 21.5341 20.6441 21.5296C21.3761 21.5161 22.1352 21.507 22.8762 21.5296C29.6811 21.7556 36.617 21.5793 43.3225 21.4076C45.0576 21.3624 46.8515 21.3173 48.6227 21.2766C48.5866 21.4347 48.5549 21.5839 48.5233 21.733L48.5278 21.7284Z"></path>
<path fill="#33B7C3" d="M24.5393 26.6365C25.1719 28.7286 25.7593 30.658 26.3331 32.5467C26.3964 32.7546 26.4823 32.9579 26.5862 33.1522C26.7895 33.5227 27.0832 33.7215 27.3995 33.7215C27.4899 33.7215 27.5757 33.708 27.6616 33.6763C28.1722 33.5046 28.2219 33.0438 28.2309 32.6281V32.5919C28.2174 32.5422 28.2083 32.488 28.1948 32.4292C28.1677 32.2485 28.127 32.0678 28.0683 31.8961C27.395 30.0344 26.7037 28.1457 26.0304 26.3202L25.8677 25.8774C25.8271 25.7689 25.7728 25.665 25.7096 25.5701C25.6328 25.4255 25.5063 25.3126 25.3526 25.2493C25.199 25.1861 25.0318 25.177 24.8737 25.2267C24.5257 25.3216 24.3585 25.5972 24.4037 25.9994C24.4308 26.2163 24.4715 26.4286 24.5393 26.6365Z"></path>
<path fill="#33B7C3" d="M39.1183 33.1105C39.2177 33.1466 39.3216 33.1692 39.4301 33.1692C39.5656 33.1692 39.7012 33.1285 39.8186 33.0608C39.9361 32.993 40.0401 32.8981 40.1169 32.7851C40.266 32.5863 40.3835 32.3649 40.4693 32.13C41.2194 30.0424 41.8294 28.3344 42.3761 26.7529C42.4665 26.5044 42.4846 26.2423 42.4394 25.9802C42.3987 25.7769 42.218 25.4606 41.9921 25.4064C41.7255 25.3431 41.4182 25.4787 41.2555 25.5691C41.1109 25.6775 41.007 25.8266 40.9618 26.0028L40.9483 26.039C40.3564 27.4894 39.5792 29.4053 38.811 31.3302C38.7387 31.52 38.68 31.7097 38.6348 31.904C38.6122 31.9854 38.5941 32.0622 38.5715 32.1345L38.5625 32.1616V32.1887C38.5941 32.5502 38.6664 32.9478 39.1183 33.1105Z"></path>
<path fill="#33B7C3" d="M32.5281 28.3842L32.5417 28.5333C32.5417 28.7322 32.5417 28.9355 32.5417 29.1343C32.5417 29.7308 32.5326 30.3498 32.5507 30.9598C32.5688 31.4071 32.6275 31.8545 32.7224 32.2928C32.7495 32.4735 32.8399 32.6362 32.98 32.7536C33.12 32.8711 33.2963 32.9299 33.477 32.9253C33.5086 32.9253 33.5403 32.9253 33.5719 32.9253C33.7662 32.9163 33.9469 32.8305 34.0825 32.6949C34.218 32.5548 34.2994 32.3741 34.3084 32.1798C34.34 31.9403 34.3536 31.6963 34.3491 31.4568C34.2858 29.8256 34.2271 28.3526 34.1503 26.857C34.1186 26.265 34.0554 25.6641 33.9921 25.0857V25.0631C33.9831 24.8914 33.9108 24.7333 33.7843 24.6158C33.6577 24.4983 33.4951 24.4396 33.3234 24.4441C33.1562 24.4305 32.989 24.4802 32.8534 24.5842C32.7179 24.6881 32.632 24.8417 32.6094 25.0089C32.5552 25.2981 32.5281 25.5918 32.5281 25.89C32.5191 26.4865 32.5236 27.0965 32.5236 27.6839V28.3888L32.5281 28.3842Z"></path>
<path stroke-width="2.25926" stroke="#33B7C3" d="M22.7393 18.9408C26.2585 11.4392 35.8531 0.937075 46.0774 18.9408"></path>
</g>
<rect stroke="#ECF2F3" rx="11.2297" height="47" width="67" y="0.5" x="0.5"></rect>
<defs>
<clipPath id="clip0_3922_10268">
<rect fill="white" rx="11.7297" height="48" width="68"></rect>
</clipPath>
</defs>
</svg>
