<svg xmlns="http://www.w3.org/2000/svg" fill="none" viewBox="0 0 68 48" height="48" width="68">
<rect stroke="#ECF2F3" rx="11.2297" height="47" width="67" y="0.5" x="0.5"></rect>
<path fill="#33B7C3" d="M17.9857 24.0462C17.5633 23.9132 17.2006 23.828 16.8613 23.6868C15.9599 23.3116 15.4043 22.6936 15.1955 21.678C14.9633 20.6313 15.1062 19.5364 15.5993 18.5845C16.922 15.9472 18.3431 13.3695 20.2657 11.1069C21.1282 10.0918 22.1489 9.45641 23.5594 9.37775C28.7794 9.06578 34.0122 9.02778 39.2363 9.2638C40.5459 9.32797 41.8503 9.49251 43.1583 9.59376C43.6755 9.63375 44.1968 9.6475 44.7154 9.63635C45.4515 9.62056 46.1495 9.73876 46.7735 10.1434C47.2089 10.4258 47.6736 10.6843 48.0482 11.0356C50.3502 13.194 52.1935 15.6855 53.4314 18.6041C53.8057 19.4866 53.7863 20.3841 53.5533 21.2954C53.1651 22.8149 52.2263 23.7435 50.6656 24.0169C50.5925 24.0312 50.5205 24.0505 50.4503 24.0748C50.4035 24.0893 50.3596 24.1137 50.244 24.1644C50.1888 25.2341 50.137 26.3402 50.0738 27.4454C49.9324 29.9179 49.8236 32.393 49.6214 34.8604C49.5433 35.8121 49.2866 36.7563 49.0394 37.6851C48.8209 38.5056 48.2312 39.026 47.4294 39.3029C46.3073 39.7022 45.1251 39.9061 43.9341 39.9057C38.5572 39.867 33.1802 39.8283 27.8035 39.7898C25.8957 39.7766 23.9871 39.7962 22.0802 39.7484C21.3381 39.7311 20.6002 39.6322 19.8798 39.4534C18.4632 39.0961 17.5594 38.1751 17.4999 36.6846C17.413 34.5098 17.3647 32.3281 17.4406 30.1542C17.5054 28.3021 17.7689 26.4572 17.9436 24.6089C17.9589 24.4393 17.9697 24.2679 17.9857 24.0462ZM36.4309 38.1948C36.4628 38.112 36.4859 38.0263 36.5003 37.9389C36.5491 35.5632 36.6053 33.1875 36.6344 30.811C36.644 30.0368 36.6966 29.2824 36.9877 28.5539C37.3573 27.63 38.0197 27.1249 39.018 27.0846C40.0578 27.0426 41.0978 26.9933 42.1381 26.9832C42.7562 26.9752 43.374 27.0091 43.9875 27.0846C44.326 27.1105 44.6462 27.2487 44.8971 27.4773C45.148 27.706 45.3154 28.012 45.3727 28.3466C45.4943 28.9017 45.566 29.4665 45.5871 30.0345C45.6672 32.6514 45.7199 35.2692 45.7833 37.9271C45.9444 37.8919 46.152 37.8333 46.3638 37.8031C46.9899 37.7134 47.3173 37.3494 47.4033 36.7331C47.4957 36.0721 47.66 35.4165 47.6955 34.7532C47.8661 31.5626 48.0065 28.3704 48.1505 25.1779C48.1715 24.7116 48.1534 24.2436 48.1534 23.909L46.0435 22.1081C45.4558 23.0264 44.5839 23.6449 43.3613 23.6883C42.1562 23.7318 41.1636 23.2682 40.3456 22.427C38.4839 24.1719 36.1709 24.1125 34.3329 22.2807C33.5893 23.4417 32.4657 23.8742 31.1525 23.8307C29.889 23.7887 28.7297 23.4141 27.8071 22.4528C27.0041 23.428 26.0353 23.9559 24.8214 23.9884C23.6552 24.0279 22.5157 23.6345 21.6223 22.8839C21.3811 23.2316 21.0631 23.5192 20.6929 23.7241C20.3227 23.9291 19.9103 24.046 19.4877 24.066C19.459 24.1552 19.4374 24.2468 19.4233 24.3395C19.3377 26.6167 19.2166 28.8936 19.1839 31.1717C19.1597 32.8542 19.2247 34.5397 19.2998 36.2215C19.3515 37.3718 19.7842 37.8294 20.9367 37.9355C22.1926 38.0513 23.4562 38.1081 24.7175 38.1338C26.8725 38.1772 29.0282 38.1823 31.1838 38.193C32.9179 38.2016 34.6504 38.1948 36.4309 38.1948ZM43.4346 28.8423C42.0874 28.8907 40.8795 28.9204 39.6739 28.982C38.8162 29.0254 38.7194 29.1231 38.5399 29.9393C38.503 30.1333 38.4824 30.3302 38.4786 30.5278C38.3716 32.8236 38.341 35.1252 37.9347 37.398C37.9098 37.6533 37.9077 37.9101 37.9285 38.1658H43.4346V28.8423ZM30.1136 11.2204C29.8705 12.5714 29.6355 13.8322 29.4182 15.096C29.1459 16.6773 28.9151 18.2662 28.6121 19.8414C28.444 20.7146 28.7149 21.5417 29.5247 21.8731C30.0729 22.0909 30.6539 22.2143 31.2432 22.2379C32.0493 22.2738 32.6399 21.8664 33.006 21.1146C33.3186 20.4727 33.513 19.8353 33.3464 19.1162C33.2874 18.8505 33.2604 18.5787 33.2654 18.3065C33.2905 16.2801 33.3271 14.2538 33.3583 12.2275C33.3634 11.8932 33.359 11.5586 33.359 11.2204H30.1136ZM43.4815 11.4653C43.9223 12.5214 44.3291 13.4745 44.7189 14.435C45.3404 15.9654 45.9502 17.5007 46.5669 19.0329C46.6032 19.1233 46.6393 19.2487 46.7117 19.284C47.2112 19.5278 47.3267 20.0307 47.546 20.4664C48.0713 21.5094 48.8886 22.0957 50.0906 22.0497C51.2767 22.0042 52.0158 20.8586 51.6131 19.7358C51.0504 18.2278 50.2712 16.8098 49.3 15.5264C48.2726 14.1277 47.1925 12.7833 45.7557 11.7578C45.0553 11.2575 44.3539 11.2798 43.4815 11.4653ZM28.5308 11.2915H25.912C25.8244 11.5041 25.7547 11.6595 25.6956 11.8185C24.5842 14.8077 23.4793 17.7995 22.356 20.7842C22.2958 20.9061 22.2819 21.0457 22.317 21.1771C22.3522 21.3085 22.4339 21.4225 22.5469 21.498C23.3926 22.1994 24.3606 22.4194 25.3921 22.063C25.7567 21.9222 26.0589 21.6556 26.2441 21.3115C26.531 20.7101 26.7453 20.0766 26.8823 19.4245C27.4393 16.8895 27.9587 14.3452 28.4876 11.8034C28.5125 11.634 28.5269 11.4633 28.5308 11.2921V11.2915ZM34.9535 11.3167C34.9315 11.3659 34.9162 11.4179 34.9081 11.4711C34.9632 14.1928 34.9814 16.916 35.0965 19.6351C35.1454 20.7988 35.9293 21.9254 37.4975 21.7589C38.6929 21.632 39.5451 20.3016 39.1566 19.1624C38.8787 18.3475 38.6694 17.5075 38.4591 16.6709C38.0142 14.9023 37.5888 13.1286 37.1453 11.3165L34.9535 11.3167ZM24.3533 11.3565C23.9517 11.3955 23.6354 11.4422 23.3179 11.4535C22.6546 11.4768 22.1867 11.7632 21.7634 12.2979C19.9248 14.6204 18.5343 17.2138 17.1393 19.8046C16.9345 20.2273 16.7887 20.676 16.7058 21.1383C16.5919 21.6572 16.7149 21.8813 17.1945 22.0799C17.8808 22.3745 18.6361 22.4695 19.3739 22.354C19.8559 22.2769 20.0929 21.9872 20.2472 21.5573C20.7123 20.2582 21.1573 18.9498 21.6779 17.673C22.5259 15.5927 23.4275 13.5345 24.3533 11.3571V11.3565ZM38.7918 11.3261C38.782 11.4163 38.7827 11.5073 38.794 11.5973C39.9745 14.4899 40.6498 17.5325 41.4459 20.5386C41.4916 20.7317 41.5823 20.9112 41.7108 21.0624C41.8392 21.2136 42.0016 21.3322 42.1847 21.4085C42.9525 21.7474 43.7857 21.7606 44.3174 20.8642C44.5442 20.4818 44.9133 20.1805 44.6043 19.6076C43.3792 17.3367 42.5577 14.9055 41.885 12.421C41.8022 12.1155 41.6887 11.8182 41.5837 11.4996L38.7918 11.3261Z"></path>
<path fill="#33B7C3" d="M27.8902 25.6104C29.5286 25.7057 31.137 25.7723 32.7403 25.9009C34.0875 26.0092 34.6897 26.5758 34.7327 27.9235C34.7772 29.3818 34.7371 30.8414 34.6126 32.2951C34.5098 33.5101 33.9274 34.1306 32.5665 34.1285C29.9923 34.1246 27.418 34.2205 24.8434 34.2481C24.2494 34.2466 23.6566 34.1946 23.0714 34.0925C21.781 33.8839 21.1087 33.1378 21.1113 31.7983C21.1139 30.4636 21.1938 29.126 21.3057 27.7953C21.3397 27.3091 21.547 26.8514 21.89 26.5052C22.2329 26.1589 22.6887 25.9473 23.1744 25.9086C24.752 25.7675 26.336 25.7047 27.8902 25.6104ZM32.7844 32.392C33.1249 30.9687 33.202 29.4952 33.0121 28.0441C32.9954 27.9054 32.7874 27.7376 32.6321 27.6797C32.3961 27.6036 32.1496 27.5655 31.9019 27.5673C30.4901 27.5219 29.0778 27.4612 27.6655 27.4591C26.4768 27.4573 25.2868 27.5079 24.0994 27.5726C22.8649 27.64 22.5857 27.9543 22.6128 29.1777C22.6282 29.871 22.668 30.5641 22.7094 31.2566C22.7688 32.2503 22.8623 32.4108 23.8315 32.437C26.2818 32.5034 28.7337 32.5142 31.1851 32.5265C31.7002 32.5291 32.2159 32.4422 32.7844 32.392Z"></path>
</svg>
