<svg xmlns="http://www.w3.org/2000/svg" fill="none" viewBox="0 0 68 48" height="48" width="68">
<g clip-path="url(#clip0_4121_8374)">
<g clip-path="url(#clip1_4121_8374)">
<path fill="#33B7C3" d="M23.401 31.4984C23.9371 31.8647 24.0073 32.1309 23.7272 32.7369C23.1414 34.0051 22.4657 35.5083 21.8954 37.0454C21.7434 37.4547 21.7325 38.2543 22.0612 38.5753C22.3302 38.8381 22.7865 38.8741 23.2278 38.9089C23.3583 38.9191 23.4815 38.9289 23.5975 38.9441C23.6162 38.9467 23.6351 38.9479 23.6541 38.9479C23.8146 38.9326 23.9691 38.8794 24.1049 38.7929L24.1622 38.7629C24.6459 38.5134 25.13 38.2647 25.6145 38.0167C26.9977 37.3076 28.4278 36.5739 29.8204 35.8254L29.8334 35.8186C31.5092 34.9186 33.0906 34.068 35.0326 34.4419C35.1137 34.4547 35.1959 34.458 35.2779 34.4513C35.3038 34.45 35.33 34.4489 35.3556 34.4486C39.9693 34.4067 43.5243 33.4516 46.5437 31.443C51.168 28.3663 53.2444 23.9633 52.2404 19.363C51.3108 15.1037 49.478 12.4535 46.2977 10.7702C43.0645 9.05923 39.4211 8.0761 36.0388 8.00195C36.0375 8.00217 36.0362 8.00217 36.0351 8.00195C31.8602 8.01838 28.3724 8.70441 25.059 10.1614C21.0423 11.9273 18.8399 14.4643 18.3261 17.9173C18.1047 19.3219 18.0783 20.7503 18.2477 22.1621C18.8038 26.4554 20.4896 29.5093 23.401 31.4984ZM24.8151 34.9699C25.0943 33.9761 25.3579 33.0376 25.6866 32.1384C26.2022 30.7291 25.4412 29.9373 24.7212 29.4049C23.6261 28.5954 22.5184 27.6636 21.8329 26.339C20.0626 22.9183 19.8217 19.7138 21.0959 16.5426C21.7869 14.8227 23.1899 13.5457 25.5108 12.5237C28.7144 11.1132 31.9029 10.4079 35.0553 10.4079C38.1938 10.4219 41.293 11.107 44.1438 12.4169C47.4351 13.8959 49.2604 16.3352 49.8882 20.0938C50.4038 23.1781 49.5469 25.7471 47.1929 28.1781C45.0966 30.3429 42.2703 31.6167 38.2985 32.1869C36.2966 32.4743 33.9288 32.7124 31.5457 32.2991C31.2482 32.2487 30.9155 32.4346 30.6464 32.5849C29.0332 33.4891 27.4352 34.396 25.7436 35.3563L24.5063 36.0583C24.6142 35.6846 24.7159 35.3227 24.8151 34.97V34.9699Z"></path>
<path fill="#33B7C3" d="M28.9244 23.3267H28.9443C29.1691 23.326 29.3914 23.2804 29.5984 23.1929C29.8053 23.1051 29.9926 22.9773 30.1493 22.8166C30.2839 22.678 30.389 22.5136 30.4582 22.3334C30.5274 22.1532 30.5592 21.961 30.5519 21.7681C30.5265 21.3752 30.3565 21.0054 30.0744 20.7299C29.7923 20.4544 29.4181 20.2925 29.0237 20.2754C28.8141 20.2767 28.6069 20.3196 28.414 20.4014C28.2212 20.4831 28.0465 20.6022 27.9002 20.7518C27.7406 20.9039 27.6128 21.0859 27.524 21.2874C27.4352 21.4889 27.3873 21.706 27.3828 21.9261C27.3817 22.1049 27.4163 22.2821 27.4847 22.4474C27.5531 22.6127 27.654 22.7626 27.7813 22.8886C28.0892 23.1797 28.5003 23.3373 28.9244 23.3267Z"></path>
<path fill="#33B7C3" d="M35.709 23.7223H35.7233C36.1121 23.7192 36.4837 23.563 36.7576 23.2879C37.0456 23.0086 37.2116 22.6272 37.2195 22.2266C37.2228 21.8266 37.0008 21.3536 36.6401 20.9929C36.3957 20.7192 36.0546 20.5504 35.6883 20.5215H35.6837C34.9439 20.5258 34.2073 21.3349 34.1965 22.1549C34.1928 22.3599 34.2301 22.5636 34.3061 22.754C34.382 22.9446 34.4952 23.1182 34.6391 23.2646C34.7782 23.4077 34.9443 23.5219 35.1279 23.6004C35.3117 23.679 35.5091 23.7204 35.709 23.7223Z"></path>
<path fill="#33B7C3" d="M42.1656 23.557H42.1751C42.5436 23.5429 42.8944 23.3949 43.1612 23.141C43.4282 22.887 43.5929 22.5446 43.6245 22.1781C43.6145 21.8158 43.4621 21.472 43.2002 21.2209C42.8478 20.8295 42.3588 20.587 41.8333 20.5432C41.7 20.5405 41.5676 20.5651 41.4442 20.6151C41.3207 20.6652 41.2089 20.7397 41.1152 20.8343C40.9678 20.9854 40.8519 21.1643 40.7746 21.3605C40.6973 21.5567 40.6597 21.7664 40.6645 21.9772C40.6554 22.3847 40.8081 22.7791 41.0893 23.075C41.3703 23.3707 41.7571 23.5441 42.1656 23.557Z"></path>
</g>
</g>
<rect stroke="#ECF2F3" rx="11.2297" height="47" width="67" y="0.5" x="0.5"></rect>
<defs>
<clipPath id="clip0_4121_8374">
<rect fill="white" rx="11.7297" height="48" width="68"></rect>
</clipPath>
<clipPath id="clip1_4121_8374">
<rect transform="translate(18 8)" fill="white" height="31" width="34.5177"></rect>
</clipPath>
</defs>
</svg>
